<svg width="16" height="16" viewBox="0 0 16 16" fill="none" xmlns="http://www.w3.org/2000/svg">
<path d="M15 8C15 6.34315 13.6569 5 12 5H9.5C9.22386 5 9 4.77614 9 4.5C9 4.22386 9.22386 4 9.5 4H12C14.2091 4 16 5.79086 16 8C16 8.92978 15.6828 9.78547 15.1506 10.4647C14.9808 10.6815 14.6623 10.6794 14.4676 10.4846C14.2718 10.2889 14.2765 9.97332 14.438 9.74853C14.7917 9.25624 15 8.65244 15 8Z" fill="#0F172B"/>
<path d="M1 8C1 9.65685 2.34315 11 4 11L6.5 11C6.77614 11 7 11.2239 7 11.5C7 11.7761 6.77614 12 6.5 12H4C1.79086 12 -1.93129e-07 10.2091 0 8C1.93129e-07 5.79086 1.79086 4 4 4L6.5 4C6.77614 4 7 4.22386 7 4.5C7 4.77614 6.77614 5 6.5 5L4 5C2.34315 5 1 6.34315 1 8Z" fill="#0F172B"/>
<path d="M5 8C5 7.72386 5.22386 7.5 5.5 7.5H10.5C10.7761 7.5 11 7.72386 11 8C11 8.27614 10.7761 8.5 10.5 8.5H5.5C5.22386 8.5 5 8.27614 5 8Z" fill="#0F172B"/>
<path d="M9 12.5C9 12.2239 9.22386 12 9.5 12H15.5C15.7761 12 16 12.2239 16 12.5C16 12.7761 15.7761 13 15.5 13H9.5C9.22386 13 9 12.7761 9 12.5Z" fill="#0F172B"/>
<path d="M12.5 9C12.7761 9 13 9.22386 13 9.5L13 15.5C13 15.7761 12.7761 16 12.5 16C12.2239 16 12 15.7761 12 15.5L12 9.5C12 9.22386 12.2239 9 12.5 9Z" fill="#0F172B"/>
</svg>
