<svg width="16" height="16" viewBox="0 0 16 16" fill="none" xmlns="http://www.w3.org/2000/svg">
<g clip-path="url(#clip0_187_1126)">
<path d="M10 0C10.2761 0 10.5 0.223858 10.5 0.5C10.5 0.776142 10.2761 1 10 1H8.5V15H10C10.2761 15 10.5 15.2239 10.5 15.5C10.5 15.7761 10.2761 16 10 16H6C5.72386 16 5.5 15.7761 5.5 15.5C5.5 15.2239 5.72386 15 6 15H7.5V1H6C5.72386 1 5.5 0.776142 5.5 0.5C5.5 0.223858 5.72386 0 6 0H10Z" fill="#0F172B"/>
<path d="M0 10.5V5.5C8.05332e-09 4.11929 1.11929 3 2.5 3H4.5C4.77614 3 5 3.22386 5 3.5C5 3.77614 4.77614 4 4.5 4H2.5C1.67157 4 1 4.67157 1 5.5V10.5C1 11.3284 1.67157 12 2.5 12H4.5C4.77614 12 5 12.2239 5 12.5C5 12.7761 4.77614 13 4.5 13H2.5C1.11929 13 0 11.8807 0 10.5Z" fill="#0F172B"/>
<path d="M16 5.5V10.5C16 11.8807 14.8807 13 13.5 13L11.5 13C11.2239 13 11 12.7761 11 12.5C11 12.2239 11.2239 12 11.5 12L13.5 12C14.3284 12 15 11.3284 15 10.5L15 5.5C15 4.67157 14.3284 4 13.5 4L11.5 4C11.2239 4 11 3.77614 11 3.5C11 3.22386 11.2239 3 11.5 3L13.5 3C14.8807 3 16 4.11929 16 5.5Z" fill="#0F172B"/>
</g>
<defs>
<clipPath id="clip0_187_1126">
<rect width="16" height="16" fill="white"/>
</clipPath>
</defs>
</svg>
