<svg width="16" height="16" viewBox="0 0 16 16" fill="none" xmlns="http://www.w3.org/2000/svg">
<g clip-path="url(#clip0_361_1451)">
<path d="M9.3125 -6.73081e-07C9.55086 -0.000280538 9.78674 0.0470365 10.0068 0.138671C10.2272 0.23043 10.4275 0.36472 10.5957 0.534179C10.764 0.703801 10.8975 0.90577 10.9883 1.12695C11.0789 1.34786 11.1252 1.58443 11.125 1.82324V2.64746L14.5 2.64746C14.7761 2.64746 15 2.87132 15 3.14746C14.9999 3.42353 14.7761 3.64746 14.5 3.64746L13.7021 3.64746L12.7471 13.3437C12.7345 14.0422 12.4558 14.71 11.9639 15.2061C11.4603 15.7138 10.7765 16 10.0625 16H5.9375C5.58391 16.0001 5.23369 15.9302 4.90722 15.7939C4.58077 15.6576 4.28457 15.4576 4.03515 15.2061C3.78573 14.9545 3.58782 14.6562 3.45312 14.3281C3.32467 14.0152 3.25794 13.6809 3.25195 13.3428L2.29687 3.64746H1.49999C1.2239 3.64746 1.00008 3.42353 0.999992 3.14746C0.999992 2.87132 1.22385 2.64746 1.49999 2.64746H4.875V1.82324C4.87479 1.58443 4.92113 1.34786 5.01172 1.12695C5.10245 0.905771 5.23598 0.703802 5.40429 0.534179C5.57254 0.36472 5.77282 0.23043 5.99316 0.138671C6.21326 0.0470363 6.44914 0.000696087 6.6875 0.000975889L9.3125 -6.73081e-07ZM4.24707 13.2451C4.24866 13.2613 4.25 13.2776 4.25 13.2939C4.24992 13.5186 4.29379 13.7409 4.3789 13.9482C4.46401 14.1555 4.58824 14.3437 4.74511 14.502C4.90203 14.6602 5.08848 14.7857 5.29297 14.8711C5.49735 14.9564 5.71656 15.0001 5.9375 15H10.0625C10.5085 15 10.9372 14.8213 11.2539 14.502C11.5707 14.1825 11.7499 13.7485 11.75 13.2949C11.75 13.2785 11.7503 13.2614 11.752 13.2451L12.6982 3.64746H3.30078L4.24707 13.2451ZM5.99316 11.5V7.5C5.99325 7.22406 6.21726 7.00022 6.49316 7C6.76925 7 6.99308 7.22393 6.99316 7.5V11.5C6.99316 11.7761 6.7693 12 6.49316 12C6.2172 11.9998 5.99316 11.776 5.99316 11.5ZM9.00684 11.5V7.5C9.00692 7.22406 9.23093 7.00022 9.50684 7C9.78293 7 10.0068 7.22393 10.0068 7.5V11.5C10.0068 11.7761 9.78298 12 9.50684 12C9.23088 11.9998 9.00684 11.776 9.00684 11.5ZM6.68652 0.999999C6.58057 0.999849 6.47511 1.02064 6.37695 1.06152C6.27882 1.10244 6.1898 1.16314 6.11426 1.23926C6.03865 1.31545 5.97763 1.40571 5.93652 1.50586C5.89546 1.60596 5.87491 1.7137 5.875 1.82226V2.64746H10.125V1.82226C10.1251 1.7137 10.1045 1.60596 10.0635 1.50586C10.0224 1.40571 9.96135 1.31545 9.88574 1.23926C9.8102 1.16314 9.72118 1.10244 9.62305 1.06152C9.52488 1.02064 9.41943 0.999849 9.31348 0.999999H6.68652Z" fill="black"/>
</g>
<defs>
<clipPath id="clip0_361_1451">
<rect width="16" height="16" fill="white"/>
</clipPath>
</defs>
</svg>
