<svg width="16" height="16" viewBox="0 0 16 16" fill="none" xmlns="http://www.w3.org/2000/svg">
<g clip-path="url(#clip0_187_1430)">
<path d="M8.24616 0.00390625C9.47684 0.0417882 10.6837 0.362868 11.7715 0.944336C12.9317 1.56451 13.9206 2.46183 14.6514 3.55566C15.3823 4.64952 15.832 5.90659 15.961 7.21582C16.0899 8.52509 15.8941 9.84607 15.3907 11.0615C14.8873 12.2768 14.092 13.3491 13.0753 14.1836C12.0583 15.0182 10.8509 15.59 9.56061 15.8467C8.27035 16.1033 6.93669 16.0371 5.6778 15.6553C4.49758 15.2973 3.41751 14.6714 2.52057 13.8281L2.34284 13.6572L2.27936 13.5781C2.15139 13.3842 2.17236 13.121 2.34284 12.9502C2.51367 12.7794 2.77767 12.7576 2.97174 12.8857L3.04987 12.9502L3.36432 13.2451C4.1164 13.9098 5.00413 14.4059 5.96784 14.6982C7.06933 15.0324 8.23635 15.0897 9.3653 14.8652C10.4943 14.6407 11.5507 14.1413 12.4405 13.4111C13.3303 12.6809 14.0263 11.7422 14.4669 10.6787C14.9074 9.61518 15.0787 8.45909 14.9659 7.31348C14.853 6.16813 14.4597 5.0683 13.8204 4.11133C13.1808 3.15418 12.3151 2.36883 11.2999 1.82617C10.4116 1.3514 9.43266 1.07544 8.43073 1.01367L8.00006 1C4.87381 1 2.96473 3.06076 0.874085 5.41504C0.690727 5.62152 0.374512 5.64039 0.168031 5.45703C-0.0383547 5.27366 -0.0572895 4.95742 0.126039 4.75098C2.17195 2.44706 4.36315 1.60434e-07 8.00006 0L8.24616 0.00390625Z" fill="#0F172B"/>
<path d="M6.19945e-05 1.75C6.19945e-05 1.47386 0.22392 1.25 0.500062 1.25C0.776204 1.25 1.00006 1.47386 1.00006 1.75V4.58301H3.83307L3.93463 4.59375C4.16212 4.64054 4.33292 4.84171 4.33307 5.08301C4.33307 5.32448 4.16226 5.52645 3.93463 5.57324L3.83307 5.58301H0.500062C0.22392 5.58301 6.19945e-05 5.35915 6.19945e-05 5.08301V1.75Z" fill="#0F172B"/>
</g>
<defs>
<clipPath id="clip0_187_1430">
<rect width="16" height="16" fill="white"/>
</clipPath>
</defs>
</svg>
