<svg width="16" height="16" viewBox="0 0 16 16" fill="none" xmlns="http://www.w3.org/2000/svg">
<path d="M13.1467 2.14669C13.342 1.95143 13.6585 1.95143 13.8537 2.14669C14.049 2.34195 14.049 2.65846 13.8537 2.85372L8.70724 8.00021L13.8537 13.1467L13.9182 13.2248C14.0463 13.4189 14.0246 13.6829 13.8537 13.8537C13.6829 14.0246 13.4189 14.0463 13.2248 13.9182L13.1467 13.8537L8.00021 8.70724L2.85372 13.8537C2.65846 14.049 2.34195 14.049 2.14669 13.8537C1.95143 13.6585 1.95143 13.342 2.14669 13.1467L7.29318 8.00021L2.14669 2.85372L2.08224 2.7756C1.95407 2.58152 1.97583 2.31756 2.14669 2.14669C2.31756 1.97583 2.58152 1.95407 2.7756 2.08224L2.85372 2.14669L8.00021 7.29318L13.1467 2.14669Z" fill="#0F172B"/>
</svg>
